<svg width="32" height="32" xmlns="http://www.w3.org/2000/svg">

 <g>
  <title>background</title>
  <rect fill="none" id="canvas_background" height="114" width="114" y="-1" x="-1"/>
 </g>
 <g>
  <title>Layer 1</title>
  <path fill="#66FCF1" id="svg_1" d="m8.171,4.999a4.435,4.435 0 0 0 -1.716,0.675a4.553,4.553 0 0 0 -0.95,0.901c-0.26,0.343 -0.577,1.003 -0.702,1.456l-0.106,0.377l0,15.727l0.106,0.377c0.124,0.453 0.441,1.113 0.702,1.456a4.305,4.305 0 0 0 2.003,1.426c0.626,0.2 0.313,0.192 8.486,0.192c8.177,0 7.864,0.008 8.486,-0.196a4.263,4.263 0 0 0 2.003,-1.422c0.26,-0.347 0.581,-1.007 0.705,-1.456l0.102,-0.377l0,-15.727l-0.106,-0.377c-0.124,-0.452 -0.441,-1.113 -0.701,-1.456a4.552,4.552 0 0 0 -0.95,-0.901a4.978,4.978 0 0 0 -1.305,-0.596l-0.37,-0.102l-7.732,-0.004c-4.251,-0.004 -7.834,0.008 -7.954,0.026l-0.001,0.001zm10.539,4.159c1.192,0.196 2.006,0.588 2.538,1.222c0.226,0.268 0.49,0.8 0.6,1.196c0.068,0.26 0.079,0.407 0.083,1.056c0.004,0.683 -0.004,0.784 -0.083,1.052c-0.23,0.8 -0.732,1.414 -1.543,1.89l-0.279,0.162l0.2,0.064c0.305,0.102 0.815,0.366 1.075,0.562c0.649,0.49 1.101,1.252 1.282,2.161c0.087,0.453 0.087,1.422 -0.004,1.837c-0.358,1.633 -1.622,2.768 -3.523,3.149c-0.728,0.147 -0.916,0.155 -4.824,0.155l-3.82,0l0,-14.6l3.953,0.015c3.538,0.011 3.99,0.019 4.345,0.079zm-5.054,4.118l0,1.72l1.822,-0.015c1.709,-0.019 1.837,-0.023 2.112,-0.098c0.86,-0.234 1.233,-0.728 1.233,-1.633c0,-0.694 -0.245,-1.143 -0.777,-1.407c-0.471,-0.234 -0.981,-0.283 -2.983,-0.287l-1.407,0l0,1.72zm0,5.899l0,2.003l1.991,-0.015c2.237,-0.015 2.312,-0.023 2.863,-0.29c0.634,-0.309 0.916,-0.815 0.916,-1.641c0,-1.063 -0.422,-1.652 -1.395,-1.946c-0.275,-0.087 -0.328,-0.087 -2.327,-0.102l-2.048,-0.011l0,2.003l0,-0.001z"/>
 </g>
</svg>
