<svg width="32" height="32" xmlns="http://www.w3.org/2000/svg">

 <g>
  <title>background</title>
  <rect fill="none" id="canvas_background" height="402" width="582" y="-1" x="-1"/>
 </g>
 <g>
  <title>Layer 1</title>
  <path fill="#66FCF1" id="svg_1" d="m26.852,15.281l-9.848,-9.848a1.453,1.453 0 0 0 -2.054,0l-2.045,2.045l2.594,2.594a1.725,1.725 0 0 1 2.185,2.199l2.5,2.5a1.728,1.728 0 1 1 -1.035,0.974l-2.332,-2.332l0,6.136a1.73,1.73 0 1 1 -1.421,-0.05l0,-6.193a1.729,1.729 0 0 1 -0.938,-2.266l-2.557,-2.558l-6.753,6.752a1.454,1.454 0 0 0 0,2.055l9.849,9.848a1.453,1.453 0 0 0 2.054,0l9.802,-9.802a1.454,1.454 0 0 0 0,-2.055l-0.001,0.001z"/>
 </g>
</svg>
