<svg width="32" height="32" xmlns="http://www.w3.org/2000/svg">

 <g>
  <title>background</title>
  <rect fill="none" id="canvas_background" height="402" width="582" y="-1" x="-1"/>
 </g>
 <g>
  <title>Layer 1</title>
  <path fill="#66FCF1" id="svg_1" d="m31.641,21.161c-0.109,-0.911 -0.578,-1.618 -1.286,-2.172c-0.82,-0.641 -1.78,-0.905 -2.803,-0.947a6.327,6.327 0 0 0 -2.437,0.376c-0.224,0.081 -0.444,0.177 -0.67,0.268c-0.03,-0.055 -0.062,-0.107 -0.088,-0.162c-0.232,-0.474 -0.512,-0.927 -0.573,-1.47c-0.044,-0.386 -0.098,-0.772 -0.006,-1.153c0.088,-0.367 0.204,-0.728 0.312,-1.091c0.056,-0.187 0.017,-0.291 -0.161,-0.375a0.724,0.724 0 0 0 -0.197,-0.065a3.04,3.04 0 0 0 -1.293,0.096c-0.15,0.044 -0.259,0.128 -0.292,0.294c-0.019,0.095 -0.058,0.186 -0.084,0.28c-0.111,0.391 -0.189,0.789 -0.368,1.161c-0.449,0.934 -0.96,1.832 -1.485,2.724c-0.057,0.096 -0.116,0.191 -0.188,0.308c-0.184,-0.385 -0.38,-0.73 -0.44,-1.136c-0.067,-0.458 -0.12,-0.915 -0.006,-1.37c0.085,-0.339 0.196,-0.672 0.298,-1.006c0.049,-0.159 0.026,-0.242 -0.118,-0.326a0.696,0.696 0 0 0 -0.237,-0.092a2.904,2.904 0 0 0 -1.338,0.11c-0.136,0.044 -0.207,0.132 -0.249,0.272c-0.122,0.413 -0.226,0.836 -0.397,1.229a429.556,429.556 0 0 1 -2.12,4.753c-0.149,0.33 -0.323,0.649 -0.491,0.97c-0.043,0.082 -0.104,0.153 -0.157,0.23c-0.043,-0.05 -0.059,-0.085 -0.059,-0.119c0.001,-0.203 -0.023,-0.413 0.016,-0.609c0.117,-0.594 0.252,-1.186 0.395,-1.775c0.117,-0.486 0.254,-0.968 0.385,-1.452c0.044,-0.162 0.045,-0.313 -0.072,-0.449c-0.195,-0.228 -0.603,-0.278 -0.845,-0.102c-0.026,0.019 -0.057,0.032 -0.107,0.061c0.009,-0.077 0.014,-0.125 0.021,-0.173c0.051,-0.37 0.061,-0.738 -0.04,-1.103c-0.127,-0.454 -0.45,-0.715 -0.921,-0.701a1.98,1.98 0 0 0 -0.653,0.124c-0.855,0.335 -1.512,0.928 -2.071,1.642a0.64,0.64 0 0 1 -0.189,0.163c-0.723,0.401 -1.449,0.797 -2.174,1.195l-0.807,0.442c-0.216,-0.207 -0.413,-0.421 -0.637,-0.603c-0.682,-0.556 -1.375,-1.098 -2.061,-1.648c-0.608,-0.487 -1.198,-0.995 -1.649,-1.64c-0.336,-0.48 -0.552,-1.005 -0.572,-1.599c-0.026,-0.756 0.188,-1.447 0.573,-2.091c0.493,-0.823 1.164,-1.483 1.903,-2.082c0.781,-0.633 1.626,-1.17 2.502,-1.66c1.225,-0.686 2.486,-1.293 3.837,-1.694c1.386,-0.411 2.791,-0.646 4.241,-0.482c0.57,0.064 1.123,0.195 1.632,0.474c0.389,0.213 0.708,0.492 0.857,0.929c0.146,0.43 0.142,0.865 0.04,1.301c-0.206,0.883 -0.69,1.612 -1.299,2.263c-0.998,1.067 -2.216,1.793 -3.588,2.273a9.843,9.843 0 0 1 -2.441,0.521c-0.682,0.057 -1.35,-0.003 -1.996,-0.241a2.597,2.597 0 0 1 -1.1,-0.747c-0.054,-0.063 -0.122,-0.13 -0.222,-0.072c-0.098,0.057 -0.115,0.151 -0.082,0.245c0.055,0.157 0.105,0.319 0.191,0.459c0.214,0.351 0.527,0.606 0.871,0.825c0.661,0.42 1.399,0.561 2.165,0.594c1.162,0.05 2.296,-0.123 3.413,-0.435c1.596,-0.445 2.983,-1.231 4.096,-2.471c0.927,-1.032 1.588,-2.198 1.73,-3.605c0.069,-0.687 -0.004,-1.36 -0.326,-1.986c-0.349,-0.679 -0.903,-1.147 -1.566,-1.494c-0.964,-0.506 -2.006,-0.705 -3.081,-0.763l-1.077,0a12.844,12.844 0 0 0 -3.786,0.782c-0.926,0.337 -1.835,0.717 -2.717,1.157c-1.921,0.96 -3.71,2.108 -5.179,3.699c-0.732,0.793 -1.352,1.663 -1.708,2.693c-0.104,0.302 -0.168,0.622 -0.243,0.934c-0.006,0.026 0.023,0.051 -0.041,0.077l0,0.44c0.064,0.113 0.071,0.225 0.1,0.338c0.189,0.733 0.578,1.363 1.06,1.937c0.687,0.818 1.518,1.476 2.38,2.096c0.747,0.537 1.505,1.062 2.255,1.595c0.129,0.091 0.248,0.197 0.388,0.309c-0.12,0.065 -0.221,0.122 -0.325,0.175c-0.99,0.502 -1.942,1.065 -2.82,1.747c-0.529,0.411 -1.041,0.848 -1.402,1.418c-0.581,0.918 -0.787,1.896 -0.354,2.94c0.127,0.305 0.32,0.569 0.592,0.763a0.863,0.863 0 0 0 0.29,0.15c0.264,0.062 0.534,0.103 0.802,0.152l0.758,0a4.714,4.714 0 0 0 2.291,-0.838c1.078,-0.744 1.804,-1.741 2.117,-3.022c0.227,-0.93 0.236,-1.862 -0.031,-2.788c-0.025,-0.086 -0.056,-0.17 -0.089,-0.253s-0.071,-0.164 -0.116,-0.268l1.719,-0.989l0.026,0.022c-0.031,0.102 -0.064,0.204 -0.093,0.308c-0.204,0.746 -0.34,1.505 -0.291,2.279c0.052,0.825 0.282,1.597 0.765,2.287c0.39,0.558 1.321,0.578 1.736,0.019a4,4 0 0 0 0.397,-0.628c0.28,-0.579 0.54,-1.168 0.807,-1.753l0.047,-0.107c-0.019,0.277 -0.042,0.52 -0.052,0.764c-0.016,0.38 0.006,0.758 0.136,1.12c0.111,0.31 0.3,0.541 0.655,0.581c0.242,0.028 0.436,-0.083 0.614,-0.224c0.279,-0.22 0.505,-0.491 0.673,-0.8c0.475,-0.873 0.963,-1.74 1.394,-2.635c0.466,-0.968 0.873,-1.964 1.306,-2.948c0.024,-0.054 0.045,-0.109 0.072,-0.175c0.102,0.402 0.174,0.795 0.305,1.168c0.152,0.432 0.341,0.854 0.547,1.264c0.097,0.194 0.086,0.32 -0.049,0.482c-0.564,0.68 -1.118,1.368 -1.673,2.056a4.542,4.542 0 0 0 -0.347,0.472a0.915,0.915 0 0 0 -0.12,0.341a0.434,0.434 0 0 0 0.346,0.493c0.219,0.047 0.453,0.065 0.677,0.048a3.972,3.972 0 0 0 2.099,-0.789c0.805,-0.597 1.064,-1.41 0.869,-2.375c-0.053,-0.262 -0.146,-0.517 -0.237,-0.769c-0.041,-0.114 -0.043,-0.194 0.031,-0.3c0.644,-0.919 1.194,-1.895 1.705,-2.892a0.613,0.613 0 0 1 0.076,-0.121c0.166,0.863 0.415,1.694 0.862,2.448c-0.228,0.22 -0.454,0.419 -0.658,0.639c-0.45,0.483 -0.84,1.009 -1.043,1.649c-0.087,0.276 -0.155,0.556 -0.116,0.852c0.061,0.458 0.436,0.755 0.886,0.651c0.963,-0.223 1.795,-0.677 2.403,-1.481c0.409,-0.541 0.446,-1.145 0.275,-1.778c-0.047,-0.172 -0.103,-0.341 -0.163,-0.539c0.238,-0.074 0.47,-0.162 0.709,-0.217c1.245,-0.284 2.476,-0.234 3.675,0.215c0.7,0.262 1.266,0.702 1.601,1.393c0.41,0.845 0.183,1.646 -0.613,2.18c-0.074,0.05 -0.159,0.089 -0.221,0.151a0.216,0.216 0 0 0 -0.051,0.167c0.005,0.031 0.087,0.069 0.133,0.069c0.262,-0.002 0.474,-0.139 0.678,-0.28c0.511,-0.353 0.848,-0.829 0.928,-1.454c0.002,-0.018 -0.024,-0.035 0.04,-0.052l0,-0.416c-0.064,-0.017 -0.037,-0.034 -0.039,-0.052l-0.007,0.002zm-24.348,1.688c-0.083,1.115 -0.588,2.019 -1.414,2.75c-0.465,0.412 -0.997,0.705 -1.618,0.808c-0.225,0.037 -0.455,0.046 -0.674,-0.047c-0.311,-0.133 -0.381,-0.409 -0.387,-0.704c-0.009,-0.469 0.155,-0.893 0.38,-1.296c0.294,-0.526 0.725,-0.927 1.185,-1.301c0.725,-0.59 1.512,-1.09 2.317,-1.561c0.013,-0.008 0.029,-0.012 0.061,-0.025c0.124,0.46 0.184,0.914 0.149,1.377l0.001,-0.001zm6.29,-4.845a8.45,8.45 0 0 1 -0.236,1.057c-0.36,1.194 -0.821,2.352 -1.32,3.493c-0.092,0.211 -0.226,0.404 -0.343,0.604c-0.018,0.031 -0.045,0.058 -0.071,0.084c-0.144,0.143 -0.282,0.135 -0.355,-0.052a3.93,3.93 0 0 1 -0.182,-0.679c-0.03,-0.154 -0.023,-0.316 -0.032,-0.474c0.01,-1.123 0.352,-2.145 0.934,-3.095c0.24,-0.392 0.501,-0.765 0.899,-1.014a1.62,1.62 0 0 1 0.399,-0.177c0.212,-0.06 0.343,0.039 0.308,0.252l-0.001,0.001zm4.291,5.467l1.542,-1.801c0.064,0.669 -1.072,2.004 -1.542,1.801zm4.926,-1.211c-0.109,0.062 -0.228,0.108 -0.34,0.165c-0.102,0.053 -0.136,0 -0.139,-0.088a0.61,0.61 0 0 1 0.023,-0.18a3.866,3.866 0 0 1 1.162,-1.871c0.008,-0.008 0.021,-0.011 0.04,-0.021a1.651,1.651 0 0 1 -0.747,1.995l0.001,0z"/>
 </g>
</svg>
