<svg width="32" height="32" xmlns="http://www.w3.org/2000/svg">

 <g>
  <title>background</title>
  <rect fill="none" id="canvas_background" height="402" width="582" y="-1" x="-1"/>
 </g>
 <g>
  <title>Layer 1</title>
  <path fill="#66FCF1" id="svg_1" d="m16.017,21.044zm-11.274,-17.525l2.049,22.981l9.194,2.552l9.22,-2.556l2.051,-22.977l-22.514,0zm18.257,5.256l-0.693,7.767l-0.48,5.359l-0.042,0.476l-5.781,1.603l-5.773,-1.603l-0.395,-4.426l2.829,0l0.201,2.248l3.142,0.847l0.008,-0.002l0.002,0l3.134,-0.846l0.329,-3.655l-6.579,0l-0.056,-0.633l-0.129,-1.429l-0.067,-0.756l7.081,0l0.258,-2.886l-10.786,0l-0.056,-0.634l-0.129,-1.429l-0.067,-0.756l14.118,0l-0.068,0.756l-0.001,-0.001z"/>
 </g>
</svg>
