<svg width="32" height="32" xmlns="http://www.w3.org/2000/svg">

 <g>
  <title>background</title>
  <rect fill="none" id="canvas_background" height="402" width="582" y="-1" x="-1"/>
 </g>
 <g>
  <title>Layer 1</title>
  <path fill="#66FCF1" id="svg_1" d="m4.665,3.411l2.063,23.176l9.258,2.574l9.284,-2.578l2.065,-23.172l-22.671,0l0.001,0zm4.285,5.5l-0.068,-0.763l7.107,0l0,2.842l-4.005,0l0.259,2.911l3.746,0l0,2.842l-6.34,0l-0.698,-7.833l-0.001,0.001zm13.567,5.754l-0.667,7.483l-0.043,0.48l-5.822,1.616l-5.814,-1.616l-0.398,-4.463l2.849,0l0.202,2.267l3.163,0.854l3.165,-0.856l0.329,-3.686l-3.485,0l0,-2.842l6.587,0l-0.069,0.763l0.003,0zm0.514,-5.754l-0.129,1.441l-0.057,0.639l-6.845,0l0,-2.842l7.1,0l-0.068,0.762l-0.001,0z"/>
 </g>
</svg>
