<svg width="32" height="32" xmlns="http://www.w3.org/2000/svg">

 <g>
  <title>background</title>
  <rect fill="none" id="canvas_background" height="402" width="582" y="-1" x="-1"/>
 </g>
 <g>
  <title>Layer 1</title>
  <path fill="#66FCF1" id="svg_1" d="m9.633,7.968l3.751,0l0,10.514c0,4.738 -2.271,6.392 -5.899,6.392c-0.888,0 -2.024,-0.148 -2.764,-0.395l0.42,-3.036a6.18,6.18 0 0 0 1.925,0.296c1.58,0 2.567,-0.716 2.567,-3.282l0,-10.489zm7.008,12.785c0.987,0.518 2.567,1.037 4.171,1.037c1.728,0 2.641,-0.716 2.641,-1.826c0,-1.012 -0.79,-1.629 -2.789,-2.32c-2.764,-0.987 -4.59,-2.517 -4.59,-4.961c0,-2.838 2.394,-4.985 6.293,-4.985c1.9,0 3.258,0.37 4.245,0.839l-0.839,3.011a7.779,7.779 0 0 0 -3.455,-0.79c-1.629,0 -2.419,0.765 -2.419,1.604c0,1.061 0.913,1.53 3.085,2.369c2.937,1.086 4.294,2.616 4.294,4.985c0,2.789 -2.122,5.158 -6.688,5.158c-1.9,0 -3.776,-0.518 -4.714,-1.037l0.765,-3.085l0,0.001z"/>
 </g>
</svg>
