<svg width="32" height="32" xmlns="http://www.w3.org/2000/svg">

 <g>
  <title>background</title>
  <rect fill="none" id="canvas_background" height="114" width="114" y="-1" x="-1"/>
 </g>
 <g>
  <title>Layer 1</title>
  <path fill="#66FCF1" id="svg_1" d="m16.232,24.047c-0.15,-0.034 -0.295,-0.081 -0.441,-0.124a12.403,12.403 0 0 1 -0.535,-0.172l-0.058,-0.021a15.198,15.198 0 0 1 -0.375,-0.139l-0.105,-0.041c-0.136,-0.054 -0.271,-0.11 -0.405,-0.168l-0.081,-0.036a17.755,17.755 0 0 1 -0.341,-0.159l-0.099,-0.047c-0.089,-0.043 -0.177,-0.09 -0.264,-0.134c-0.059,-0.031 -0.118,-0.06 -0.176,-0.092a12.256,12.256 0 0 1 -0.317,-0.178c-0.035,-0.02 -0.071,-0.038 -0.107,-0.059a12.24,12.24 0 0 1 -0.412,-0.252l-0.111,-0.074a8.272,8.272 0 0 1 -0.293,-0.195c-0.032,-0.021 -0.063,-0.045 -0.094,-0.066c-0.093,-0.066 -0.186,-0.132 -0.277,-0.2l-0.123,-0.093a9.358,9.358 0 0 1 -0.25,-0.196l-0.112,-0.09c-0.105,-0.087 -0.209,-0.173 -0.312,-0.263l-0.034,-0.028c-0.111,-0.097 -0.22,-0.197 -0.328,-0.298l-0.092,-0.088c-0.08,-0.076 -0.158,-0.153 -0.235,-0.231l-0.092,-0.092a16.615,16.615 0 0 1 -0.289,-0.306l-0.014,-0.015c-0.1,-0.109 -0.197,-0.221 -0.293,-0.334l-0.077,-0.091a13.35,13.35 0 0 1 -0.531,-0.681c-2.197,-2.996 -2.986,-7.129 -1.23,-10.523l-1.556,1.974c-1.994,2.866 -1.746,6.595 -0.223,9.64c0.036,0.073 0.074,0.145 0.112,0.217c0.024,0.045 0.046,0.092 0.071,0.137l0.044,0.079c0.026,0.049 0.053,0.095 0.079,0.142c0.047,0.083 0.096,0.166 0.145,0.249a9.913,9.913 0 0 0 0.252,0.4c0.024,0.037 0.047,0.075 0.072,0.111c0.08,0.118 0.161,0.236 0.244,0.353l0.007,0.009l0.041,0.056a9.157,9.157 0 0 0 0.307,0.403c0.067,0.085 0.136,0.169 0.206,0.253l0.079,0.094a14.633,14.633 0 0 0 0.293,0.333l0.011,0.013a14.064,14.064 0 0 0 0.617,0.629l0.095,0.091c0.105,0.099 0.211,0.196 0.319,0.291l0.005,0.004l0.056,0.047c0.095,0.082 0.192,0.164 0.29,0.245l0.12,0.096a14.272,14.272 0 0 0 0.37,0.287a10.275,10.275 0 0 0 0.37,0.264l0.027,0.019c0.086,0.06 0.175,0.116 0.263,0.174l0.114,0.076c0.136,0.086 0.273,0.171 0.412,0.253l0.114,0.064c0.102,0.059 0.205,0.117 0.309,0.174c0.056,0.03 0.114,0.059 0.171,0.088c0.073,0.038 0.147,0.078 0.221,0.115l0.051,0.025l0.091,0.044c0.116,0.055 0.233,0.11 0.351,0.163l0.074,0.033c0.135,0.059 0.271,0.116 0.409,0.17c0.033,0.014 0.066,0.026 0.1,0.039c0.127,0.049 0.256,0.098 0.386,0.143l0.049,0.017c0.142,0.05 0.286,0.096 0.43,0.141l0.104,0.031c0.147,0.044 0.293,0.097 0.445,0.125c9.643,1.759 12.444,-5.795 12.444,-5.795c-2.352,3.065 -6.528,3.873 -10.485,2.974l-0.003,-0.004zm-3.471,-7.812c0.216,0.31 0.456,0.678 0.742,0.927c0.104,0.114 0.213,0.226 0.324,0.336l0.085,0.084c0.108,0.105 0.217,0.207 0.33,0.307l0.014,0.012l0.003,0.003c0.125,0.11 0.255,0.216 0.386,0.319l0.088,0.069c0.132,0.101 0.266,0.2 0.404,0.295l0.012,0.009c0.061,0.042 0.123,0.081 0.184,0.122c0.03,0.019 0.058,0.04 0.088,0.058c0.098,0.063 0.198,0.125 0.299,0.183l0.042,0.024c0.087,0.051 0.176,0.1 0.265,0.148c0.031,0.018 0.063,0.033 0.094,0.049l0.185,0.096l0.028,0.012c0.127,0.063 0.255,0.123 0.386,0.18l0.085,0.035c0.105,0.045 0.21,0.088 0.316,0.129l0.135,0.05c0.097,0.036 0.193,0.069 0.291,0.101l0.131,0.042c0.139,0.043 0.276,0.098 0.42,0.122c7.445,1.233 9.164,-4.499 9.164,-4.499c-1.549,2.232 -4.55,3.296 -7.752,2.465a10.18,10.18 0 0 1 -0.422,-0.122l-0.127,-0.041a7.908,7.908 0 0 1 -0.295,-0.102l-0.133,-0.05a9.977,9.977 0 0 1 -0.317,-0.128l-0.086,-0.036a9.135,9.135 0 0 1 -0.389,-0.18c-0.066,-0.032 -0.13,-0.066 -0.195,-0.099l-0.112,-0.058a9.766,9.766 0 0 1 -0.246,-0.139l-0.059,-0.033c-0.101,-0.059 -0.2,-0.12 -0.299,-0.182l-0.09,-0.06a9.221,9.221 0 0 1 -0.193,-0.128a10.912,10.912 0 0 1 -0.402,-0.294l-0.091,-0.071c-1.401,-1.107 -2.512,-2.619 -3.041,-4.334c-0.554,-1.778 -0.434,-3.775 0.525,-5.395l-1.181,1.659c-1.442,2.075 -1.364,4.853 -0.239,7.048c0.189,0.368 0.401,0.725 0.638,1.065l0.005,0.002zm7.848,-2.567c0.061,0.023 0.123,0.043 0.185,0.064l0.082,0.026c0.088,0.027 0.175,0.06 0.265,0.076c4.111,0.794 5.226,-2.11 5.523,-2.537c-0.977,1.406 -2.618,1.744 -4.632,1.255a6.084,6.084 0 0 1 -1.067,-0.391a5.973,5.973 0 0 1 -1.015,-0.619c-1.802,-1.367 -2.922,-3.976 -1.746,-6.101l-0.637,0.877c-0.85,1.251 -0.933,2.805 -0.344,4.186c0.622,1.467 1.897,2.617 3.384,3.163l0.002,0.001z"/>
 </g>
</svg>
