<svg version="1.1" xmlns="http://www.w3.org/2000/svg" xmlns:xlink="http://www.w3.org/1999/xlink" x="0px" y="0px" viewBox="0 0 1000 1000" enable-background="new 0 0 1000 1000" xml:space="preserve">
<g><path fill='#66FCF1' d="M221.7,511.9c0-4.1-2.2-7.9-5.7-9.9l-94.5-54.4c-1.6-0.9-3.4-1.4-5.2-1.5h-1c-1.8,0.1-3.6,0.6-5.2,1.5L15.7,502c-3.5,2-5.7,5.8-5.7,9.9l0.2,146.4c0,2,1.1,3.9,2.8,4.9c1.8,1.1,3.9,1.1,5.7,0l56.1-32.1c3.6-2.1,5.7-5.8,5.7-9.9v-68.4c0-4.1,2.2-7.9,5.7-9.9l23.9-13.8c1.8-1,3.7-1.5,5.7-1.5c1.9,0,3.9,0.5,5.7,1.5l23.9,13.8c3.5,2,5.7,5.8,5.7,9.9v68.4c0,4.1,2.2,7.8,5.7,9.9l56.1,32.1c1.8,1.1,4,1.1,5.7,0c1.7-1,2.8-2.9,2.8-4.9L221.7,511.9"/><path fill='#66FCF1' d="M664.1,588.2c0,1-0.5,2-1.4,2.5l-32.4,18.7c-0.9,0.5-2,0.5-2.8,0l-32.5-18.7c-0.9-0.5-1.4-1.5-1.4-2.5v-37.5c0-1,0.5-2,1.4-2.5l32.4-18.7c0.9-0.5,2-0.5,2.9,0l32.4,18.7c0.9,0.5,1.4,1.4,1.4,2.5V588.2 M672.9,310.7c-1.8-1-3.9-1-5.7,0.1c-1.7,1-2.8,2.9-2.8,4.9v145c0,1.4-0.8,2.7-2,3.5c-1.2,0.7-2.8,0.7-4,0l-23.7-13.6c-3.5-2-7.9-2-11.4,0L528.8,505c-3.5,2-5.7,5.8-5.7,9.9V624c0,4.1,2.2,7.8,5.7,9.9l94.5,54.6c3.5,2,7.9,2,11.4,0l94.5-54.6c3.5-2,5.7-5.8,5.7-9.9V352.1c0-4.1-2.2-7.9-5.9-10L672.9,310.7z"/><path fill='#66FCF1' d="M984.3,549.7c3.5-2,5.7-5.8,5.7-9.9v-26.4c0-4.1-2.2-7.8-5.7-9.9L890.4,449c-3.5-2.1-7.9-2.1-11.4,0l-94.5,54.5c-3.5,2-5.7,5.8-5.7,9.9v109.1c0,4.1,2.2,7.9,5.8,9.9l93.9,53.5c3.5,2,7.7,2,11.2,0.1l56.8-31.6c1.8-1,2.9-2.9,2.9-4.9c0-2.1-1.1-4-2.9-5l-95.1-54.6c-1.8-1-2.9-2.9-2.9-5v-34.2c0-2,1.1-3.9,2.9-4.9l29.6-17.1c1.8-1,3.9-1,5.7,0l29.6,17.1c1.8,1,2.9,2.9,2.9,4.9v26.9c0,2,1.1,3.9,2.9,5c1.8,1,3.9,1,5.7,0L984.3,549.7"/><path fill='#66FCF1' d="M366.9,448.4c3.5-2,7.9-2,11.4,0l94.5,54.5c3.5,2,5.7,5.8,5.7,9.9V622c0,4.1-2.2,7.8-5.7,9.9l-94.5,54.6c-3.5,2-7.9,2-11.4,0l-94.5-54.6c-3.5-2-5.7-5.8-5.7-9.9V512.8c0-4.1,2.2-7.8,5.7-9.9L366.9,448.4"/><path fill='#66FCF1' d="M884.4,595.6L860,581.5v-28.2l24.4-14.1l24.4,14.1v28.2L884.4,595.6z"/></g>
</svg>
